<?xml version="1.0" encoding="UTF-8" standalone="no"?>
<!-- Created with Inkscape (http://www.inkscape.org/) -->

<svg
   width="242.72664mm"
   height="205.17485mm"
   viewBox="0 0 242.72664 205.17485"
   version="1.1"
   id="svg192172"
   inkscape:version="1.1.2 (0a00cf5339, 2022-02-04)"
   sodipodi:docname="logo.svg"
   xmlns:inkscape="http://www.inkscape.org/namespaces/inkscape"
   xmlns:sodipodi="http://sodipodi.sourceforge.net/DTD/sodipodi-0.dtd"
   xmlns="http://www.w3.org/2000/svg"
   xmlns:svg="http://www.w3.org/2000/svg">
  <sodipodi:namedview
     id="namedview192174"
     pagecolor="#ffffff"
     bordercolor="#666666"
     borderopacity="1.0"
     inkscape:pageshadow="2"
     inkscape:pageopacity="0.0"
     inkscape:pagecheckerboard="0"
     inkscape:document-units="mm"
     showgrid="false"
     inkscape:zoom="0.54803752"
     inkscape:cx="141.41367"
     inkscape:cy="479.89415"
     inkscape:window-width="1920"
     inkscape:window-height="1043"
     inkscape:window-x="1080"
     inkscape:window-y="1080"
     inkscape:window-maximized="1"
     inkscape:current-layer="layer1"
     fit-margin-top="0"
     fit-margin-left="0"
     fit-margin-right="0"
     fit-margin-bottom="0" />
  <defs
     id="defs192169" />
  <g
     inkscape:label="Layer 1"
     inkscape:groupmode="layer"
     id="layer1"
     transform="translate(-217.93901,184.05469)">
    <g
       id="g190996-9-1"
       transform="matrix(0.78286996,0,0,0.78286996,537.90163,-77.355065)"
       style="stroke-width:0.4;stroke-miterlimit:4;stroke-dasharray:none">
      <g
         id="g186912-6-0"
         style="stroke-width:0.4;stroke-miterlimit:4;stroke-dasharray:none">
        <g
           id="g60180-4-5"
           transform="translate(-210.34374,153.33734)"
           style="stroke-width:0.4;stroke-miterlimit:4;stroke-dasharray:none">
          <path
             style="fill:#001524;fill-opacity:1;stroke:#001524;stroke-width:0.4;stroke-linecap:butt;stroke-linejoin:miter;stroke-miterlimit:4;stroke-dasharray:none;stroke-opacity:1"
             d="m -85.992631,-152.14133 24.084278,40.32388 -71.131717,-41.07271 z"
             id="path36070-33-1"
             sodipodi:nodetypes="cccc" />
          <path
             style="fill:#2a52ad;fill-opacity:1;stroke:#2a52ad;stroke-width:0.4;stroke-linecap:butt;stroke-linejoin:miter;stroke-miterlimit:4;stroke-dasharray:none;stroke-opacity:1"
             d="m -85.989582,-152.13541 24.081229,-1e-5 v 40.31797 l -24.081229,-40.31796"
             id="path36255-3-1"
             sodipodi:nodetypes="cccc" />
          <path
             style="fill:#2a52ad;fill-opacity:1;stroke:#2a52ad;stroke-width:0.4;stroke-linecap:butt;stroke-linejoin:miter;stroke-miterlimit:4;stroke-dasharray:none;stroke-opacity:1"
             d="m -85.989582,-152.13541 -12.20596,-20.86641 36.018459,20.86641 h -23.812499"
             id="path36472-8-0" />
          <path
             style="fill:#0e264d;fill-opacity:1;stroke:#0e264d;stroke-width:0.4;stroke-linecap:butt;stroke-linejoin:miter;stroke-miterlimit:4;stroke-dasharray:none;stroke-opacity:1"
             d="m -86.258388,-151.85608 -11.937154,-21.14574 -34.842838,20.11711 z"
             id="path36707-6-8"
             sodipodi:nodetypes="cccc" />
        </g>
        <g
           id="g87855-0-5"
           transform="translate(-210.34374,153.33734)"
           style="stroke-width:0.4;stroke-miterlimit:4;stroke-dasharray:none">
          <path
             style="fill:#021424;fill-opacity:1;stroke:#021424;stroke-width:0.4;stroke-linecap:butt;stroke-linejoin:miter;stroke-miterlimit:4;stroke-dasharray:none;stroke-opacity:1"
             d="m -54.50777,-111.81743 24.080687,-40.31798 47.049324,-0.74983 -71.130011,41.06781"
             id="path60501-48-0" />
          <path
             style="fill:#1b2e4e;fill-opacity:1;stroke:#1b2e4e;stroke-width:0.4;stroke-linecap:butt;stroke-linejoin:miter;stroke-miterlimit:4;stroke-dasharray:none;stroke-opacity:1"
             d="m -30.457768,-152.1023 47.076458,-0.74515 -34.83927,-20.15384 z"
             id="path60723-88-6"
             sodipodi:nodetypes="cccc" />
          <path
             style="fill:#0a4bda;fill-opacity:1;stroke:#0a4bda;stroke-width:0.4;stroke-linecap:butt;stroke-linejoin:miter;stroke-miterlimit:4;stroke-dasharray:none;stroke-opacity:1"
             d="m -30.427083,-152.13541 -24.080687,0.0843 v 40.23372 z"
             id="path60946-97-4" />
          <path
             style="fill:#0a4bda;fill-opacity:1;stroke:#0a4bda;stroke-width:0.4;stroke-linecap:butt;stroke-linejoin:miter;stroke-miterlimit:4;stroke-dasharray:none;stroke-opacity:1"
             d="m -30.427083,-152.13541 12.206503,-20.86588 -36.28719,20.95018 24.092116,-0.0396"
             id="path61170-7-6"
             sodipodi:nodetypes="cccc" />
        </g>
        <g
           id="g124979-6-2"
           transform="translate(-210.34374,153.33734)"
           style="stroke-width:0.4;stroke-miterlimit:4;stroke-dasharray:none">
          <path
             style="fill:#001323;fill-opacity:1;stroke:#001323;stroke-width:0.4;stroke-linecap:butt;stroke-linejoin:miter;stroke-miterlimit:4;stroke-dasharray:none;stroke-opacity:1"
             d="M -113.77083,-200.55417 -136.73948,-241.3 v 82.00535 z"
             id="path88167-4-5"
             sodipodi:nodetypes="cccc" />
          <path
             style="fill:#1278ec;fill-opacity:1;stroke:#1278ec;stroke-width:0.4;stroke-linecap:butt;stroke-linejoin:miter;stroke-miterlimit:4;stroke-dasharray:none;stroke-opacity:1"
             d="m -113.77083,-200.55417 11.87474,-20.75685 -34.84339,-19.98898 z"
             id="path88702-3-8"
             sodipodi:nodetypes="cccc" />
          <path
             style="fill:#0a255b;fill-opacity:1;stroke:#0a255b;stroke-width:0.4;stroke-linecap:butt;stroke-linejoin:miter;stroke-miterlimit:4;stroke-dasharray:none;stroke-opacity:1"
             d="m -113.76822,-200.56786 11.87213,21.15609 -34.84526,20.11293 z"
             id="path88883-0-6"
             sodipodi:nodetypes="cccc" />
          <path
             style="fill:#144daf;fill-opacity:1;stroke:#144daf;stroke-width:0.4;stroke-linecap:butt;stroke-linejoin:miter;stroke-miterlimit:4;stroke-dasharray:none;stroke-opacity:1"
             d="m -113.77083,-200.55417 11.87474,-20.75685 v 41.89925 z"
             id="path89064-3-2" />
        </g>
        <g
           id="g148447-0-8"
           transform="translate(-210.34374,153.33734)"
           style="stroke-width:0.4;stroke-miterlimit:4;stroke-dasharray:none">
          <path
             style="fill:#1c2e3d;fill-opacity:1;stroke:#1c2e3d;stroke-width:0.4;stroke-linecap:butt;stroke-linejoin:miter;stroke-miterlimit:4;stroke-dasharray:none;stroke-opacity:1"
             d="m -2.6452913,-200.55522 22.9686503,-40.74583 v 82.00535 z"
             id="path88167-0-9-4"
             sodipodi:nodetypes="cccc" />
          <path
             style="fill:#159cec;fill-opacity:1;stroke:#159cec;stroke-width:0.4;stroke-linecap:butt;stroke-linejoin:miter;stroke-miterlimit:4;stroke-dasharray:none;stroke-opacity:1"
             d="m -2.6452913,-200.55522 -11.8747397,-20.75685 34.84335,-20.11712 z"
             id="path88702-4-2-7" />
          <path
             style="fill:#032a7b;fill-opacity:1;stroke:#032a7b;stroke-width:0.4;stroke-linecap:butt;stroke-linejoin:miter;stroke-miterlimit:4;stroke-dasharray:none;stroke-opacity:1"
             d="m -2.6452913,-200.55522 -11.8747397,21.1424 34.84335,20.11712 z"
             id="path88883-4-54-2" />
          <path
             style="fill:#0466e3;fill-opacity:1;stroke:#0466e3;stroke-width:0.4;stroke-linecap:butt;stroke-linejoin:miter;stroke-miterlimit:4;stroke-dasharray:none;stroke-opacity:1"
             d="m -2.6452913,-200.55522 -11.8747397,-20.75685 v 41.89925 z"
             id="path89064-4-0-4" />
        </g>
        <g
           id="g168611-5-0"
           transform="translate(-210.34374,153.33734)"
           style="stroke-width:0.4;stroke-miterlimit:4;stroke-dasharray:none">
          <path
             style="fill:#112746;fill-opacity:1;stroke:#112746;stroke-width:0.4;stroke-linecap:butt;stroke-linejoin:miter;stroke-miterlimit:4;stroke-dasharray:none;stroke-opacity:1"
             d="m -86.173975,-248.27922 24.265612,-40.62608 -71.130037,41.06726 z"
             id="path36070-3-9-6"
             sodipodi:nodetypes="cccc" />
          <path
             style="fill:#2db8e4;fill-opacity:1;stroke:#2db8e4;stroke-width:0.4;stroke-linecap:butt;stroke-linejoin:miter;stroke-miterlimit:4;stroke-dasharray:none;stroke-opacity:1"
             d="m -85.989593,-248.58734 24.08123,1e-5 v -40.31797 l -24.08123,40.31796"
             id="path36255-1-4-2"
             sodipodi:nodetypes="cccc" />
          <path
             style="fill:#2db8e4;fill-opacity:1;stroke:#2db8e4;stroke-width:0.4;stroke-linecap:butt;stroke-linejoin:miter;stroke-miterlimit:4;stroke-dasharray:none;stroke-opacity:1"
             d="m -85.989593,-248.58734 -12.20596,20.86641 36.01846,-20.86641 h -23.8125"
             id="path36472-7-6-9" />
          <path
             style="fill:#092a68;fill-opacity:1;stroke:#092a68;stroke-width:0.4;stroke-linecap:butt;stroke-linejoin:miter;stroke-miterlimit:4;stroke-dasharray:none;stroke-opacity:1"
             d="m -86.327962,-248.82257 -11.867591,21.10164 -34.842847,-20.11711 z"
             id="path36707-5-92-9"
             sodipodi:nodetypes="cccc" />
        </g>
        <g
           id="g186748-2-0"
           transform="translate(-210.34374,153.33734)"
           style="stroke-width:0.4;stroke-miterlimit:4;stroke-dasharray:none">
          <path
             style="fill:#1ebfe1;fill-opacity:1;stroke:#1ebfe1;stroke-width:0.4;stroke-linecap:butt;stroke-linejoin:miter;stroke-miterlimit:4;stroke-dasharray:none;stroke-opacity:1"
             d="m -54.507783,-288.90532 24.08069,40.31798 47.04932,0.74983 -71.13001,-41.06781"
             id="path60501-1-4-8" />
          <path
             style="fill:#015995;fill-opacity:1;stroke:#015995;stroke-width:0.4;stroke-linecap:butt;stroke-linejoin:miter;stroke-miterlimit:4;stroke-dasharray:none;stroke-opacity:1"
             d="m -30.427093,-248.58734 47.04932,0.74983 -34.84282,20.11605 z"
             id="path60723-7-7-1" />
          <path
             style="fill:#62e5fb;fill-opacity:1;stroke:#62e5fb;stroke-width:0.4;stroke-linecap:butt;stroke-linejoin:miter;stroke-miterlimit:4;stroke-dasharray:none;stroke-opacity:1"
             d="m -30.427093,-248.58734 -24.08069,-0.0843 v -40.23372 z"
             id="path60946-8-75-3" />
          <path
             style="fill:#62e5fb;fill-opacity:1;stroke:#62e5fb;stroke-width:0.4;stroke-linecap:butt;stroke-linejoin:miter;stroke-miterlimit:4;stroke-dasharray:none;stroke-opacity:1"
             d="m -30.427093,-248.58734 12.2065,20.86588 -36.019,-20.86588 h 23.8125"
             id="path61170-5-4-1" />
        </g>
      </g>
      <g
         id="g32040-7-8-1"
         transform="translate(-648.22888,82.621797)"
         style="stroke-width:0.4;stroke-miterlimit:4;stroke-dasharray:none">
        <path
           id="path981-9-6-4-1-0"
           style="fill:#03163b;fill-opacity:1;stroke:#03163b;stroke-width:0.4;stroke-miterlimit:4;stroke-dasharray:none;paint-order:markers fill stroke"
           inkscape:transform-center-y="14.461681"
           d="m 379.67708,-87.674093 v -41.971737 l -36.34857,20.98586 z"
           sodipodi:nodetypes="cccc" />
        <path
           id="path981-9-6-5-1-2-3"
           style="fill:#0660de;fill-opacity:1;stroke:#0660de;stroke-width:0.4;stroke-miterlimit:4;stroke-dasharray:none;paint-order:markers fill stroke"
           inkscape:transform-center-y="14.461681"
           d="m 379.67708,-87.674093 v -41.971737 l 36.34857,20.98586 z"
           sodipodi:nodetypes="cccc" />
        <path
           id="path981-9-6-0-8-89-4"
           style="fill:#0360b7;fill-opacity:1;stroke:#0360b7;stroke-width:0.4;stroke-miterlimit:4;stroke-dasharray:none;paint-order:markers fill stroke"
           inkscape:transform-center-y="14.461681"
           d="m 379.67708,-129.64583 v -41.97174 l -36.34857,20.98586 z"
           sodipodi:nodetypes="cccc" />
        <path
           id="path981-9-6-5-9-5-3-0"
           style="fill:#48edf7;fill-opacity:1;stroke:#48edf7;stroke-width:0.4;stroke-miterlimit:4;stroke-dasharray:none;paint-order:markers fill stroke"
           inkscape:transform-center-y="14.461681"
           d="m 379.67708,-129.64583 v -41.97174 l 36.34857,20.98586 z"
           sodipodi:nodetypes="cccc" />
        <path
           id="path981-9-6-5-3-9-6-3"
           style="fill:#16a5e3;fill-opacity:1;stroke:#16a5e3;stroke-width:0.4;stroke-miterlimit:4;stroke-dasharray:none;paint-order:markers fill stroke"
           inkscape:transform-center-y="5.334557"
           d="m 416.20806,-108.47758 -36.34859,-20.98586 36.34857,-20.98586 z"
           sodipodi:nodetypes="cccc"
           inkscape:transform-center-x="8.93456" />
        <path
           id="path981-9-6-5-3-8-7-80-9"
           style="fill:#0a267a;fill-opacity:1;stroke:#0a267a;stroke-width:0.4;stroke-miterlimit:4;stroke-dasharray:none;paint-order:markers fill stroke"
           inkscape:transform-center-y="5.334557"
           d="m 343.32849,-108.65997 36.34859,-20.98586 -36.34857,-20.98586 z"
           sodipodi:nodetypes="cccc"
           inkscape:transform-center-x="-8.93456" />
      </g>
    </g>
    <g
       id="g1232">
      <g
         aria-label=" Sapphire"
         id="text194306"
         style="font-size:10.5833px;line-height:1.25;font-family:Bangers;-inkscape-font-specification:Bangers;fill:#001524;stroke-width:0.264583"
         transform="matrix(1.3716214,0,0,1.3716214,-80.990776,-7.8486977)">
        <path
           d="m 228.48705,14.487923 q -3.10444,0 -5.3975,-1.164168 -2.25778,-1.164167 -3.52778,-2.928057 -1.27,-1.7991681 -1.62278,-3.7394472 l 4.51556,-1.1994453 q 0.52917,2.1519459 2.11667,3.3513912 1.5875,1.1994453 3.98639,1.1994453 1.83444,0 2.96333,-0.9172229 1.16417,-0.9172229 1.16417,-2.1872237 0,-1.1641675 -0.84667,-2.0108347 -0.81139,-0.881945 -2.2225,-1.1641675 l -3.95111,-0.7761116 q -3.13973,-0.5997226 -4.93889,-2.7163907 -1.79917,-2.1166681 -1.79917,-5.150559 0,-2.1166681 1.19944,-3.8805582 1.23473,-1.7991677 3.24556,-2.8222237 2.04611,-1.023057 4.33917,-1.023057 2.92806,0 4.97417,0.987779 2.04611,0.987778 3.175,2.5047237 1.16417,1.4816677 1.55223,3.1397243 l -4.48028,1.4111121 q -0.74084,-1.9050013 -2.01084,-2.7163907 -1.27,-0.8466673 -3.21028,-0.8466673 -1.09361,0 -1.97556,0.4586115 -0.84666,0.4586114 -1.34055,1.1994452 -0.45861,0.705556 -0.45861,1.4463899 0,1.1641674 0.77611,2.0461125 0.77611,0.8466672 2.15194,1.0936118 l 3.73945,0.8113894 q 3.42195,0.74083387 5.29167,2.8222242 1.86972,2.0461124 1.86972,4.9036144 0,2.0461125 -1.12888,3.84528 -1.12889,1.799168 -3.24556,2.928058 -2.08139,1.093612 -4.90362,1.093612 z"
           id="path94276" />
        <path
           d="m 247.18423,14.487923 q -3.03389,0 -4.83306,-1.481668 -1.76389,-1.481668 -1.76389,-4.0216693 0,-2.4341683 1.65806,-4.0216694 1.65805,-1.5875011 4.97417,-2.1166681 l 5.715,-0.9172228 V 1.2940249 q 0,-1.27000081 -0.98778,-2.08139025 -0.9525,-0.81138945 -2.54,-0.81138945 -1.48167,0 -2.64584,0.81138945 -1.12889,0.77611163 -1.65805,2.08139025 l -3.77473,-1.83444564 q 0.84667,-2.25777926 3.10445,-3.63361356 2.25778,-1.3758343 5.15056,-1.3758343 2.32833,0 4.1275,0.8819451 1.83445,0.8466672 2.82223,2.4341683 1.02305,1.55222326 1.02305,3.5277801 V 14.064589 h -4.37445 v -2.046112 q -2.25778,2.469446 -5.99722,2.469446 z m -1.79917,-5.6797263 q 0,0.9877784 0.74083,1.5875013 0.74084,0.564445 1.90501,0.564445 2.15194,0 3.52778,-1.3405569 1.37583,-1.3758343 1.37583,-3.3866689 V 5.4568055 l -4.83306,0.8113895 q -1.37583,0.2822224 -2.04611,0.9172228 -0.67028,0.5997226 -0.67028,1.6227789 z"
           style="font-weight:bold;font-size:35.2778px;font-family:'Eudoxus Sans';-inkscape-font-specification:'Eudoxus Sans Bold'"
           id="path94278" />
        <path
           d="m 261.82452,-5.1265349 h 4.33916 v 2.2577793 q 1.05834,-1.2700009 2.61056,-1.9755569 1.5875,-0.7055561 3.56306,-0.7055561 2.68111,0 4.90361,1.3405565 2.22251,1.3052787 3.49251,3.59833576 1.27,2.29305714 1.27,5.08000344 0,2.7869463 -1.27,5.0800034 -1.27,2.2930575 -3.49251,3.6336135 -2.18722,1.305279 -4.93889,1.305279 -1.76389,0 -3.28083,-0.564445 -1.51695,-0.599723 -2.57528,-1.693335 v 8.890006 h -4.62139 z m 4.62139,9.595562 q 0,1.6580566 0.67028,2.9986131 0.70555,1.3052787 1.905,2.0461125 1.23472,0.7408343 2.75167,0.7408343 2.36361,0 3.88055,-1.6227793 1.55223,-1.6580567 1.55223,-4.1627806 0,-1.6227789 -0.70556,-2.9280575 -0.70556,-1.34055651 -1.94028,-2.08139034 -1.23472,-0.77611166 -2.78694,-0.77611166 -1.51695,0 -2.75167,0.74083386 -1.19945,0.74083383 -1.905,2.08139024 -0.67028,1.3052787 -0.67028,2.9633354 z"
           style="font-weight:bold;font-size:35.2778px;font-family:'Eudoxus Sans';-inkscape-font-specification:'Eudoxus Sans Bold'"
           id="path94280" />
        <path
           d="m 285.53116,-5.1265349 h 4.33917 v 2.2577793 q 1.05833,-1.2700009 2.61055,-1.9755569 1.58751,-0.7055561 3.56306,-0.7055561 2.68112,0 4.90362,1.3405565 2.2225,1.3052787 3.4925,3.59833576 1.27,2.29305714 1.27,5.08000344 0,2.7869463 -1.27,5.0800034 -1.27,2.2930575 -3.4925,3.6336135 -2.18723,1.305279 -4.9389,1.305279 -1.76389,0 -3.28083,-0.564445 -1.51695,-0.599723 -2.57528,-1.693335 v 8.890006 h -4.62139 z m 4.62139,9.595562 q 0,1.6580566 0.67028,2.9986131 0.70555,1.3052787 1.905,2.0461125 1.23472,0.7408343 2.75167,0.7408343 2.36361,0 3.88056,-1.6227793 1.55222,-1.6580567 1.55222,-4.1627806 0,-1.6227789 -0.70556,-2.9280575 -0.70555,-1.34055651 -1.94028,-2.08139034 -1.23472,-0.77611166 -2.78694,-0.77611166 -1.51695,0 -2.75167,0.74083386 -1.19945,0.74083383 -1.905,2.08139024 -0.67028,1.3052787 -0.67028,2.9633354 z"
           style="font-weight:bold;font-size:35.2778px;font-family:'Eudoxus Sans';-inkscape-font-specification:'Eudoxus Sans Bold'"
           id="path94282" />
        <path
           d="m 309.23781,-12.640707 h 4.62139 v 9.4191733 q 0.81139,-1.1288896 2.15194,-1.7286122 1.34056,-0.5997227 2.99862,-0.5997227 2.08139,0 3.73945,0.9172229 1.65805,0.9172228 2.57527,2.5752795 0.91723,1.65805667 0.91723,3.7747248 V 14.064589 h -4.62139 V 2.8109704 q 0,-1.86972347 -1.09362,-2.99861312 -1.05833,-1.12888968 -2.78694,-1.12888968 -1.69334,0 -2.78695,1.12888968 -1.09361,1.12888965 -1.09361,2.99861312 V 14.064589 h -4.62139 z"
           style="font-weight:bold;font-size:35.2778px;font-family:'Eudoxus Sans';-inkscape-font-specification:'Eudoxus Sans Bold'"
           id="path94284" />
        <path
           d="m 330.15748,-5.1265349 h 4.6214 V 14.064589 h -4.6214 z m -0.35277,-5.2916701 q 0,-1.270001 0.70555,-1.975557 0.70556,-0.705556 1.94028,-0.705556 1.27,0 1.97556,0.705556 0.70555,0.705556 0.70555,1.975557 0,1.2347229 -0.70555,1.9402789 -0.67028,0.7055561 -1.97556,0.7055561 -1.23472,0 -1.94028,-0.7055561 -0.70555,-0.705556 -0.70555,-1.9402789 z"
           style="font-weight:bold;font-size:35.2778px;font-family:'Eudoxus Sans';-inkscape-font-specification:'Eudoxus Sans Bold'"
           id="path94286" />
        <path
           d="m 339.04745,-5.1265349 h 4.33917 v 2.6811129 q 0.70556,-1.5522233 2.01084,-2.2225015 1.30528,-0.6702782 3.175,-0.6702782 h 1.12889 v 4.0922249 h -1.65806 q -1.97555,0 -3.175,1.23472308 -1.19944,1.23472302 -1.19944,3.38666892 V 14.064589 h -4.6214 z"
           style="font-weight:bold;font-size:35.2778px;font-family:'Eudoxus Sans';-inkscape-font-specification:'Eudoxus Sans Bold'"
           id="path94288" />
        <path
           d="m 361.34297,14.487923 q -2.89278,0 -5.15055,-1.340557 -2.22251,-1.340556 -3.49251,-3.6336133 -1.23472,-2.2930571 -1.23472,-5.0800034 0,-2.8222241 1.23472,-5.08000344 1.27,-2.29305706 3.42195,-3.59833576 2.18722,-1.3052787 4.86834,-1.3052787 2.89278,0 5.00944,1.2700009 2.11667,1.2347231 3.21028,3.38666895 1.12889,2.15194585 1.12889,4.72722535 0,1.1994453 -0.24694,1.9402791 h -13.8289 q 0.21167,2.1166681 1.62278,3.386669 1.41111,1.2700013 3.4925,1.2700013 1.55223,0 2.64584,-0.6350009 1.12889,-0.6702782 1.79916,-1.8344457 l 3.73945,1.8344457 q -0.88194,2.1166679 -3.10444,3.4219469 -2.22251,1.270001 -5.11529,1.270001 z m 4.05695,-12.2413974 q -0.17639,-1.76389009 -1.37583,-2.85750194 -1.19945,-1.12888966 -3.03389,-1.12888966 -1.76389,0 -2.99862,1.05833406 -1.23472,1.02305624 -1.62278,2.92805754 z"
           style="font-weight:bold;font-size:35.2778px;font-family:'Eudoxus Sans';-inkscape-font-specification:'Eudoxus Sans Bold'"
           id="path94290" />
      </g>
      <g
         aria-label="CMS"
         id="text61868"
         style="font-size:19.7556px;line-height:1.25;font-family:Bangers;-inkscape-font-specification:Bangers;fill:#0360b7;stroke-width:0.264583"
         transform="matrix(1.3716214,0,0,1.3716214,-80.990776,-7.8486977)">
        <path
           d="m 358.43348,-15.2565 q -2.07434,0 -3.75356,-0.98778 -1.67923,-0.98778 -2.64725,-2.726273 -0.94827,-1.738493 -0.94827,-3.891853 0,-2.153361 0.94827,-3.891853 0.96802,-1.738493 2.62749,-2.706518 1.67923,-0.98778 3.77332,-0.98778 1.52118,0 2.78554,0.533402 1.26436,0.513645 2.13361,1.402647 0.889,0.869247 1.28411,1.936049 l -2.41018,1.126069 q -0.43463,-1.145825 -1.44216,-1.837271 -1.00754,-0.711201 -2.35092,-0.711201 -1.36313,0 -2.42994,0.651935 -1.0668,0.632179 -1.65947,1.797759 -0.57291,1.165581 -0.57291,2.686762 0,1.521181 0.57291,2.706517 0.59267,1.16558 1.65947,1.817515 1.06681,0.632179 2.42994,0.632179 1.34338,0 2.35092,-0.691446 1.00753,-0.711201 1.44216,-1.857026 l 2.41018,1.126069 q -0.39511,1.066803 -1.28411,1.955805 -0.86925,0.869246 -2.13361,1.402647 -1.26436,0.513646 -2.78554,0.513646 z"
           style="font-weight:bold;font-family:'Eudoxus Sans';-inkscape-font-specification:'Eudoxus Sans Bold'"
           id="path94293" />
        <path
           d="m 366.80982,-30.211489 h 2.56823 l 4.89939,6.637881 4.78085,-6.637881 h 2.56823 v 14.717922 H 378.92 v -9.996334 l -4.54378,6.045214 h -0.31609 l -4.56355,-6.24277 v 10.19389 h -2.68676 z"
           style="font-weight:bold;font-family:'Eudoxus Sans';-inkscape-font-specification:'Eudoxus Sans Bold'"
           id="path94295" />
        <path
           d="m 389.70656,-15.2565 q -1.7385,0 -3.02261,-0.651935 -1.26436,-0.651935 -1.97556,-1.639715 -0.7112,-1.007535 -0.90876,-2.094093 l 2.52872,-0.671691 q 0.29633,1.205092 1.18533,1.876782 0.88901,0.671691 2.23239,0.671691 1.02729,0 1.65947,-0.513646 0.65193,-0.513646 0.65193,-1.224847 0,-0.651935 -0.47413,-1.126069 -0.45438,-0.49389 -1.2446,-0.651935 l -2.21263,-0.434623 q -1.75825,-0.335846 -2.76579,-1.521182 -1.00753,-1.185336 -1.00753,-2.884317 0,-1.185336 0.67169,-2.173116 0.69144,-1.007536 1.81751,-1.580448 1.14583,-0.572913 2.42994,-0.572913 1.63972,0 2.78554,0.553157 1.14583,0.553157 1.77801,1.402648 0.65193,0.829735 0.86924,1.758248 l -2.50896,0.790224 q -0.41487,-1.066802 -1.12607,-1.521181 -0.7112,-0.474134 -1.79776,-0.474134 -0.61242,0 -1.10631,0.256822 -0.47414,0.256823 -0.75071,0.671691 -0.25683,0.395112 -0.25683,0.809979 0,0.651935 0.43463,1.145825 0.43462,0.474135 1.20509,0.612424 l 2.09409,0.454379 q 1.9163,0.414867 2.96334,1.580448 1.04705,1.145824 1.04705,2.746028 0,1.145825 -0.63218,2.15336 -0.63218,1.007536 -1.81752,1.639715 -1.16558,0.612424 -2.74602,0.612424 z"
           style="font-weight:bold;font-family:'Eudoxus Sans';-inkscape-font-specification:'Eudoxus Sans Bold'"
           id="path94297" />
      </g>
    </g>
  </g>
</svg>
